<svg id="Layer_1" data-name="Layer 1" xmlns="http://www.w3.org/2000/svg" viewBox="0 0 122.88 95.48"><defs><style>.cls-1{fill:#1a1a1a;}.cls-1,.cls-2{fill-rule:evenodd;}.cls-2{fill:#d8453e;}</style></defs><title>health</title><path class="cls-1" d="M54.08,15.28C61.2,7.85,66.19,1.44,77.16.18c16.28-1.87,31.52,10.91,32.07,26.59q-.33-.39-.69-.75l0,0a11.36,11.36,0,0,0-8-3.33H88.65A11.42,11.42,0,0,0,77.29,34v7h-7a11.33,11.33,0,0,0-8,3.34l0,0a11.62,11.62,0,0,0-2.75,4.42L54.71,36.33l-3-7.95-3,7.94-7.87,20L30.05,35.49,22.1,51.67h-12c-5.69-7.7-9.71-16-10-25C-.56,10.44,12.21.08,26.89.26,40,.44,45.54,7,54.08,15.28Zm20.16,60.3c-1.68,1.61-3.26,3.14-4.68,4.55L54.09,95.48,41.31,83.17c-7.66-7.37-17.71-15.68-26-25H26.1l4.1-8.32L41.63,71.89l10-25.52L59,65.19a11.28,11.28,0,0,0,2.31,5.94l0,.07v0a12.1,12.1,0,0,0,.95,1.07h0a11.36,11.36,0,0,0,8,3.34Z"/><path class="cls-2" d="M88.65,30h11.86a4,4,0,0,1,4,4V48.33h14.31a4,4,0,0,1,4,4V64.22a4,4,0,0,1-4,4H104.54v14a4,4,0,0,1-4,4H88.65a4,4,0,0,1-4-4v-14H70.32a4,4,0,0,1-4-4V52.35a4,4,0,0,1,4-4h14.3V34a4,4,0,0,1,4-4Z"/></svg>